Patient4_TMGait_0pt5_01_left_21_EMG.mot
version=1
nRows=23
nColumns=33
inDegrees=no
endheader
time	1LAddLong	2LGlutMax	3LGlutMed	4LIliopsoas	5LSemiMemb	6LBicFemLong	7LRecFem	8LVastMed	9LVastLat	10LGasMed	11LTibAnt	12lTibPost	13LPeroneusLong	14LSol	15LExtDigLong	16LFlexDigLong	17RAddLong	18RGlutMax	19RGlutMed	20RIliopsoas	21RSemiMemb	22RBicFemLong	23RRecFem	24RVastMed	25RVastLat	26RGasMed	27RTibAnt	28RTibPost	29RPeroneusLong	30RSol	31RExtDigLong	32RFlexDigLong
28.55	-0.007477	0.68954	-0.16541	0.014648	0.015564	0.091248	0.24368	0.027466	-0.059509	-0.17609	-0.006866	0.46417	-0.14603	0.32379	0.019073	0.39887	0.054169	0.024261	-0.11643	-0.046692	-0.12558	-0.057068	0.26504	-0.090027	-0.002289	0.002289	-0.22766	0.004883	0.009155	0.065765	-0.002136	-0.016022
28.551	-0.005493	0.70374	0.032654	0.032501	0.030975	0.12161	0.1889	-0.039368	0.021057	-0.15564	-0.008087	-0.65308	-0.24674	0.3537	0.007782	-0.054474	0.087585	0.025177	-0.16251	-0.060425	-0.1181	-0.086212	0.27344	-0.1387	-0.009003	0.005188	0.15717	0.009613	0.098724	0.055542	-0.002441	-0.012665
28.552	-0.002747	0.63385	0.045624	0.007629	0.024109	0.1178	0.18997	-0.061798	0.033569	0.092621	-0.003967	0.001984	-0.13794	0.24979	0.029755	-0.5661	0.11536	0.034637	-0.16083	-0.009766	-0.1152	-0.093536	0.25543	-0.12543	-0.00473	-0.003967	0.53375	0.00412	0.03952	0.054932	-0.004425	-0.014954
28.553	-0.005646	0.75241	0.075073	-0.009766	-0.005493	0.032654	0.18906	-0.037384	-0.1062	0.43274	-0.007019	-0.039368	-0.071106	0.051422	0.040588	-0.03006	0.11749	0.10513	-0.21439	0.11261	-0.068054	-0.05127	0.2803	-0.077515	0.000153	-0.007935	0.62057	0.007477	-0.042725	0.052643	-0.002136	-0.014343
28.554	-0.007172	0.74799	0.093536	0.002747	-0.001373	-0.20752	0.11871	-0.00473	-0.29297	0.16388	-0.00885	0.052643	-0.02121	-0.1561	-0.037231	0.045624	0.10208	0.081635	-0.21637	0.14877	-0.022888	-0.086365	0.32211	-0.070801	-0.001221	-0.014648	0.50598	0.006256	-0.070648	0.067749	-0.003662	-0.018005
28.555	0.001526	0.70602	0.016632	0.020752	-0.006256	-0.46371	-0.063629	0.003357	-0.28244	-0.18585	0.000153	0.10437	0.032501	-0.41412	-0.074921	-0.09079	0.10559	-0.00061	-0.24262	0.14679	-0.019226	-0.08606	0.30991	-0.10483	-0.027008	-0.013275	-0.21698	0.010986	0.012207	0.06073	-0.002899	-0.018005
28.556	0.026398	0.625	0.022736	0.004425	0.001221	-0.41397	-0.16632	0.023193	-0.14954	-0.032349	0.005341	0.15259	0.09613	-0.57571	-0.078278	-0.056152	0.094757	0.043335	-0.28214	0.070496	0.006409	-0.030975	0.37125	-0.082245	-0.028229	-0.007477	-0.6633	0.002899	0.13016	-0.003662	-0.004272	-0.015259
28.557	0.026398	0.54275	-0.054626	0.007477	0.000305	-0.15961	-0.11597	0.000153	0.057068	0.11841	0.000916	0.66849	0.073395	-0.6134	-0.065613	0.112	0.030518	0.023804	-0.20706	0.072174	-0.00412	-0.00885	0.41184	-0.072784	-0.031891	0.009308	-0.44983	0.005188	0.18173	-0.016785	-0.007019	-0.010681
28.558	0.034332	0.52902	-0.055695	-0.00351	-0.002136	-0.029755	-0.1416	-0.01358	0.13886	0.11917	0.005493	-0.16678	0.12024	-0.36575	-0.032349	0.17624	-0.015564	0.013123	-0.16785	0.090332	0.014191	0.021057	0.32196	-0.084991	-0.026398	0.002289	-0.92422	0.004883	0.1358	-0.091705	-0.00061	-0.013733
28.559	0.024261	0.47272	-0.003204	0.005035	0.006866	0.30716	-0.23651	-0.009308	0.1416	-0.062714	0.001678	-0.092468	0.054016	-0.1471	0.007019	0.024414	-0.005341	0.060425	-0.12878	0.001068	0.026398	0.018616	0.33768	-0.082092	-0.029755	0.015411	-0.8876	0.007019	0.14862	-0.18951	0.001068	-0.005798
28.56	0.006104	0.45075	-0.048828	0.013885	0.033264	0.38727	-0.24994	-0.003357	0.036316	-0.13336	0.010376	-0.10361	0.059814	0.036163	0.031281	0.019379	0.040588	0.045776	-0.058899	-0.005341	0.028076	0.024261	0.3508	-0.031281	-0.027313	0.013275	-0.24185	0.002747	0.12863	-0.16785	-0.000153	-0.007935
28.561	0.010071	0.38101	-0.12741	0.025482	-0.044861	0.4303	-0.32211	-0.00824	0.005341	-0.11856	-0.006256	-0.092316	0.083008	0.20416	0.022888	0.009155	0.004272	0.046539	-0.070953	-0.04837	0.009003	0.017853	0.36026	-0.055389	-0.026398	0.008698	0.29327	0.005188	-0.11841	0.001984	-0.007324	-0.00946
28.562	0.027161	0.31479	-0.13916	0.020142	-0.080109	0.30334	-0.36529	-0.009613	-0.040131	-0.049591	-0.00351	-0.080414	0.0737	0.25818	0.025787	-0.009308	-0.008392	0.054016	0.014648	-0.12436	-0.019684	0.008392	0.35111	-0.10056	-0.024567	-0.001373	0.61142	0.003815	-0.20371	0.059967	-0.002289	-0.001526
28.563	0.014648	0.30395	-0.080414	0.012054	-0.10834	0.026398	-0.36163	-0.002441	-0.06897	-0.014343	0.003815	-0.071411	0.058899	0.042419	0.03418	-0.027924	-0.027313	0.045624	0.22171	-0.19333	-0.02243	0	0.35385	-0.06424	-0.017548	-0.003357	0.7933	-0.000458	-0.13443	0.042572	-0.00412	-0.004425
28.564	0.010529	0.29007	0.003967	-0.007477	-0.084991	-0.48035	-0.42297	-0.001373	-0.037384	-0.012054	0.016632	-0.054169	0.38406	-0.067444	0.030212	-0.028229	0.003967	0.072937	0.2446	-0.16571	-0.034637	0.001221	0.33615	-0.066376	-0.022125	-0.010529	1.0562	-0.003357	-0.10559	-0.011444	-0.003357	-0.002594
28.565	0.02121	0.36072	0.061493	0.004883	-0.046692	-0.6485	-0.48462	0.000305	-0.065002	-0.012512	0.021515	-0.044708	0.56763	-0.048676	0.03418	-0.035706	0.002289	0.1004	0.13168	-0.16388	-0.033264	0.051117	0.3067	-0.005798	-0.003662	-0.009155	1.0657	-0.006409	-0.062714	0.020294	-0.012512	-0.007172
28.566	0.005341	0.40482	0.000305	0.007324	-0.040894	-0.448	-0.55328	0.020142	-0.091553	0.007324	0.009766	-0.043335	0.52902	0.017853	0.046692	-0.021667	-0.035858	0.12726	-0.13763	-0.14206	-0.039215	0.10147	0.30884	-0.04715	-0.005341	-0.00946	0.20859	-0.000305	0.014648	0.072174	-0.007172	-0.008545
28.567	0.00946	0.42664	-0.079956	0.024872	0.034943	-0.17532	-0.70007	0.034943	-0.055389	-0.029755	-0.016632	-0.013123	0.80826	0.006256	0.028381	-0.026703	-0.046539	0.13763	-0.22705	-0.10773	-0.048218	0.10101	0.34409	-0.006409	-0.011444	0.00351	-1.1131	-0.002594	0.1091	0.0354	-0.002747	-0.00061
28.568	0.018158	0.43823	-0.0177	0.026703	0.11017	-0.12772	-0.84335	0.031586	0.050659	-0.054169	-0.046387	-0.011444	-0.17395	-0.030212	0.018616	-0.01709	-0.029297	0.16144	-0.13519	0.012512	-0.020905	0.13886	0.3122	-0.003357	-0.030823	-0.000916	-1.7633	-0.001068	0.1152	-0.063629	-0.002289	-0.009155
28.569	0.023651	0.57663	0.057678	0.006256	0.081635	-0.2385	-1.0065	0.017395	0.17792	-0.014191	0.017548	-0.001984	-1.2753	-0.032806	0.021667	-0.014343	-0.008087	0.13306	-0.14633	0.14145	0.025177	0.14557	0.32867	-0.033417	-0.032806	-0.003357	-1.6576	0.001831	0.13168	-0.14938	-0.000458	-0.009918
28.57	0.008698	0.58319	0.007324	-0.000916	0.054016	-0.19547	-0.93903	0.002747	0.23911	-0.025024	0.02182	0.003052	-0.36621	-0.002441	-0.048065	-0.019531	-0.005646	0.081024	-0.059509	0.177	0.049133	0.11993	0.27863	-0.032959	-0.01236	0.016022	-0.66864	0.00473	0.27634	-0.17761	-0.002747	-0.008698
28.571	0.008698	0.58991	-0.15335	-0.00351	0.04837	-0.07309	-0.83954	-0.009766	0.31296	-0.006409	-0.014038	0.006409	0.31387	-0.11276	-0.12619	-0.010376	0.005341	0.009308	0.008545	0.18631	0.077362	0.073242	0.26596	-0.035248	-0.039978	0.021362	0.13641	-0.001984	0.27039	-0.19028	-0.00412	-0.007477
28.572	0.010529	0.62698	-0.27054	-0.00824	0.0177	-0.019531	-0.87311	-0.024719	0.32562	0.01236	-0.024414	0.009613	-0.20142	-0.12909	-0.080719	-0.02121	0.005798	0.018158	0.037994	0.072174	0.067596	-0.023346	0.30609	-0.061188	-0.035706	0.016022	0.50095	0.001373	0.026398	-0.05722	-0.002136	-0.007477
